<svg xmlns="http://www.w3.org/2000/svg" xmlns:xlink="http://www.w3.org/1999/xlink" viewBox="0 0 105.19 114.01"><defs><clipPath id="a"><rect width="105.19" height="114.01" style="fill:none"/></clipPath></defs><path d="M100.51,50.48a43,43,0,0,1,3,15.54c0,25.45-22.79,46.08-50.92,46.08S1.66,91.47,1.66,66,24.45,18.35,52.57,18.35c16.67,0,33.8,8.32,43,22.5a51.55,51.55,0,0,1,5,9.63Zm0,0" style="fill:#fe6853"/><path d="M51.43,16.42c-12.88,15.37-13.59,31.93.44,40.71a2.28,2.28,0,0,0,2.48,0c16.49-11.15,7-32.85-2.92-40.68Zm0,0" style="fill:#bee294"/><path d="M52.12,17.28C62.61,34.42,77.61,41.62,91.45,34.57a2.31,2.31,0,0,0,1.17-2.69C87.53,14,65.84,11.76,52.12,17.28Zm-1.49.37c-19.35-5.51-35.13-1-40.52,13.58A2.24,2.24,0,0,0,11,33.92C26.91,43.72,44.27,31,50.63,17.65Zm0,0" style="fill:#bee294"/><path d="M49.43,17.44A36.16,36.16,0,0,0,43.74,6.2a1.13,1.13,0,0,1,.5-1.73l6.54-2.4a1.12,1.12,0,0,1,1.3.4c1.32,1.86,4.4,7.38.56,14.56a1,1,0,0,1-.45.45L51,18.1a1.1,1.1,0,0,1-1.59-.66Zm0,0" style="fill:#84aa52"/><g style="clip-path:url(#a)"><path d="M86.93,78.7C82,90,75,100.2,67.62,110.05c20.78-5.81,35.87-23.34,35.87-44a43.18,43.18,0,0,0-3-15.54,51.52,51.52,0,0,0-4.94-9.63,44,44,0,0,0-4.11-5.38c4,14.23,1.35,29.68-4.53,43.25Zm0,0" style="fill:#a14829"/><path d="M102.17,49.84A1.69,1.69,0,1,0,99,51a41.83,41.83,0,0,1,2.79,15c0,24.48-22.08,44.39-49.23,44.39S3.35,90.49,3.35,66A42.08,42.08,0,0,1,7.2,48.53a46.57,46.57,0,0,1,7.11-11.08,25.77,25.77,0,0,0,8.58,1.73,30.14,30.14,0,0,0,17.57-6.54c.25-.2.51-.39.76-.6a24.14,24.14,0,0,0-1,11.9c1.16,6.3,5.35,11.63,12.11,15.41a1.75,1.75,0,0,0,.83.22,1.77,1.77,0,0,0,.87-.23c6.71-4,10.49-9.83,10.94-16.78a25.86,25.86,0,0,0-1.52-10.15C68.9,36.68,74.8,38.94,80.82,39a25.13,25.13,0,0,0,9.56-2,46.3,46.3,0,0,1,4.54,6,1.69,1.69,0,0,0,2.86-1.81,50.55,50.55,0,0,0-4.26-5.75l.41-.24a1.69,1.69,0,0,0,.79-1.8A24.29,24.29,0,0,0,84,17.51a32.44,32.44,0,0,0-17.54-4.7A40.63,40.63,0,0,0,55.6,14.28a15,15,0,0,0-.07-8.59,14.54,14.54,0,0,0-2.72-5A1.69,1.69,0,0,0,51,.22L42.21,3.44a1.69,1.69,0,0,0-.7,2.7A31.87,31.87,0,0,1,46.75,15a52.84,52.84,0,0,0-11.09-1.24c-6.88,0-12.75,1.57-17.49,4.66A24.75,24.75,0,0,0,8,32.48a1.71,1.71,0,0,0,.63,1.87A26.83,26.83,0,0,0,11.18,36a49.37,49.37,0,0,0-7,11.18A45.21,45.21,0,0,0,0,66.06C0,78.85,5.49,90.87,15.47,99.91A55.07,55.07,0,0,0,52.6,113.84,55.11,55.11,0,0,0,89.74,99.91c10-9.08,15.45-21.1,15.45-33.89a45.26,45.26,0,0,0-3-16.18Zm-40.6-7.52c-.36,5.6-3.21,10.16-8.47,13.58-5.42-3.26-8.64-7.48-9.58-12.57-1.24-6.76,1.56-14.67,8.12-22.92,5.52,5,10.46,13.69,9.93,21.91Zm20.59-22a20.5,20.5,0,0,1,9,12.5,21.62,21.62,0,0,1-10.31,2.69,24.3,24.3,0,0,1-14.14-5A46.5,46.5,0,0,1,55,18a36.4,36.4,0,0,1,11.42-1.8,29,29,0,0,1,15.7,4.17ZM45.55,5.78l5.4-2a11.74,11.74,0,0,1,.4,12l-.2.19,0,0-.39-.11A38.11,38.11,0,0,0,45.55,5.78ZM35.63,17.07A51.75,51.75,0,0,1,48,18.7a.85.85,0,0,0,.06.19C43.19,27.54,33.44,35.7,22.91,35.7a20.76,20.76,0,0,1-11.36-3.45C15,22.45,23.49,17.07,35.63,17.07Zm0,0"/></g><path d="M55.29,93,75.36,78.47l1.93-15.16-15-3L42.21,74.81Zm4.86-17.16A5.59,5.59,0,1,1,68,77.05a5.6,5.6,0,0,1-7.81-1.26Zm0,0" style="fill:#450000"/><path d="M37.84,77.93,50.92,96.07,60,89.53,46.91,71.4Zm0,0" style="fill:#450000"/><path d="M41,85.82l3.27,4.53-9.07,6.54-3.27-4.54Zm0,0" style="fill:#450000"/><path d="M60.88,88.82l-1.45,8.91L49.72,105l1.49-9.22Zm-13.13-18-9.64,7-9.23-1.5,10-6.92Zm0,0" style="fill:#450000"/></svg>